<svg width="347" height="348" viewBox="0 0 347 348" fill="none" xmlns="http://www.w3.org/2000/svg">
<g clip-path="url(#clip0_911_2)">
<path d="M48.6661 1.15496C51.7328 8.75496 62.5328 40.2216 61.9995 40.2216C61.7328 40.2216 58.7995 38.355 55.4661 36.2216C52.2661 33.955 44.3995 29.4216 37.9995 26.0883C27.1995 20.2216 23.1995 19.2883 26.3995 23.155C28.9328 26.355 34.2661 41.0216 37.7328 54.355C55.1995 121.022 52.2661 203.822 30.6661 260.088C27.0661 269.555 25.9995 271.022 23.5995 270.622C21.0661 270.222 20.1328 271.688 16.5328 282.222C14.1328 288.755 9.59948 301.822 6.26615 311.155L0.132812 328.222H11.9995H23.7328L27.9995 315.822C35.8661 293.688 41.5995 286.355 50.3995 287.155C55.3328 287.555 55.9995 287.155 61.9995 279.822C65.4661 275.555 67.9995 271.688 67.5995 271.288C66.2661 270.088 55.0661 269.155 51.7328 269.955C49.9995 270.488 46.6661 272.622 44.2661 275.022C39.9995 279.155 38.6661 278.488 41.3328 273.422C42.6661 271.022 42.2661 270.888 35.9995 270.888C32.3995 270.888 29.3328 270.488 29.3328 269.822C29.3328 269.288 31.0661 264.222 33.3328 258.622C54.3995 203.822 57.4661 127.555 41.1995 59.0216C39.0661 49.955 37.3328 42.355 37.3328 41.955C37.3328 40.355 54.9328 53.955 63.7328 62.2216C75.9995 73.6883 83.0662 82.8883 93.3328 100.222C124.266 152.088 137.999 196.755 139.599 249.555C140.533 278.088 138.933 295.288 133.999 310.488C129.333 325.155 129.066 325.422 123.999 321.022C116.533 314.888 117.866 318.488 125.866 326.088C129.999 330.088 134.533 335.822 135.866 338.888L138.266 344.355L140.933 337.955C144.666 329.288 148.933 315.822 150.933 306.622L152.666 298.888L159.733 304.622C163.599 307.688 168.933 313.422 171.333 317.422L175.866 324.622L177.333 320.755C178.133 318.622 180.533 312.355 182.666 306.888C197.599 267.688 198.933 230.222 187.199 177.955C180.533 148.088 168.133 117.955 148.933 84.8883C131.599 55.155 99.8662 25.155 68.7995 9.15496C50.5328 -0.178371 47.5995 -1.37837 48.6661 1.15496ZM77.3328 28.755C91.3328 38.355 113.199 59.8216 125.466 76.2216C150.666 109.688 173.466 166.622 178.799 208.755C180.799 224.888 179.599 261.555 176.666 276.222C174.399 287.288 170.933 298.888 169.199 300.755C168.533 301.422 165.066 299.688 160.933 296.488L153.599 291.022L154.799 285.288C157.066 273.422 157.733 246.222 156.133 232.222C152.266 198.888 142.399 163.155 127.999 130.888C112.533 96.2216 98.7995 75.0216 79.1995 55.4216C66.1328 42.355 65.5995 41.555 61.9995 30.755C59.9995 24.6216 57.9995 18.755 57.5995 17.6883C56.7995 15.4216 61.8661 18.355 77.3328 28.755Z" fill="black"/>
<path d="M79.5986 230.488C77.5986 232.355 78.9319 233.555 83.1986 233.555C85.9986 233.555 87.9986 232.755 88.5319 231.555C89.0653 230.088 88.2653 229.555 84.7986 229.555C82.3986 229.555 79.9986 229.955 79.5986 230.488Z" fill="black"/>
<path d="M125.867 232.755C125.2 235.555 124.533 235.955 120.933 235.288C117.6 234.755 116 235.288 113.867 237.821C110.4 241.688 103.467 259.688 104.4 262.221C104.933 263.555 107.467 263.955 114.133 263.821L123.2 263.555L129.6 246.888C133.067 237.688 136 230.088 136 229.821C136 229.688 133.867 229.555 131.333 229.555C127.6 229.555 126.533 230.088 125.867 232.755ZM122.133 242.488C119.467 250.755 116.133 258.221 114.8 258.621C113.867 258.888 114.667 255.288 116.667 250.221C118.533 245.288 120 241.021 120 240.755C120 240.488 120.667 240.221 121.467 240.221C122.267 240.221 122.533 241.288 122.133 242.488Z" fill="black"/>
<path d="M46.2657 235.821C45.599 236.888 41.199 253.021 39.4657 260.488C38.6657 263.955 38.9324 264.221 43.3324 264.221C47.4657 264.221 48.2657 263.555 51.3324 257.821C54.6657 251.688 54.6657 251.688 53.8657 256.221C53.4657 258.755 52.9324 261.421 52.799 262.221C52.799 262.888 54.799 263.555 57.3324 263.555C61.7324 263.555 62.1324 263.155 68.9324 250.221C72.799 242.888 75.8657 236.355 75.999 235.821C75.999 235.155 74.399 234.888 72.399 235.155C69.4657 235.421 67.7324 237.155 64.9324 242.221C62.799 245.955 61.4657 247.421 61.8657 245.555C64.5324 234.621 64.5324 234.888 60.799 234.888C57.999 234.888 56.9324 236.088 54.6657 241.021C51.4657 247.821 49.4657 248.088 51.8657 241.421C52.6657 239.021 53.3324 236.621 53.3324 236.088C53.3324 234.621 47.0657 234.488 46.2657 235.821Z" fill="black"/>
<path d="M77.3327 237.555C76.1327 239.688 66.666 263.155 66.666 263.821C66.666 264.088 68.666 264.221 71.1993 264.221H75.866L81.1993 250.221C84.266 242.488 86.666 235.821 86.666 235.421C86.666 233.821 78.266 235.688 77.3327 237.555Z" fill="black"/>
<path d="M90 236.221C88.6667 238.355 80 261.421 80 262.888C80 263.555 81.7333 264.221 83.8667 264.221C87.6 264.221 88.1333 263.555 92 253.155C94.4 247.155 96.8 241.688 97.4667 241.021C100.133 238.088 99.4667 241.555 95.2 252.088C92.6667 258.355 90.6667 263.555 90.6667 263.821C90.6667 264.088 92.6667 264.221 95.2 264.221C99.6 264.221 99.7333 264.088 104.533 251.421C107.867 242.355 108.933 238.088 108 236.888C106.4 235.021 91.0667 234.488 90 236.221Z" fill="black"/>
<path d="M316.132 239.688C312.666 244.088 312.532 247.421 315.999 250.888C321.999 256.888 331.999 253.021 331.999 244.755C331.999 236.755 321.199 233.288 316.132 239.688ZM327.999 240.221C331.199 243.421 331.332 245.288 328.532 249.288C326.266 252.488 320.266 253.288 317.599 250.621C313.732 246.755 317.466 237.555 322.932 237.555C324.266 237.555 326.532 238.755 327.999 240.221Z" fill="black"/>
<path d="M318.8 245.155C318.8 247.955 319.2 249.421 319.6 248.488C320.4 246.621 324 246.355 324 248.221C324 248.888 324.666 249.555 325.466 249.555C326.533 249.555 326.533 249.021 325.466 247.821C324.533 246.488 324.533 245.555 325.466 244.621C327.6 242.488 325.733 240.221 321.866 240.221C319.066 240.221 318.666 240.755 318.8 245.155ZM324 242.888C324 243.555 323.066 244.221 321.866 244.221C320.8 244.221 320.266 243.555 320.666 242.888C321.066 242.088 322 241.555 322.8 241.555C323.466 241.555 324 242.088 324 242.888Z" fill="black"/>
<path d="M229.333 269.955C214.533 274.221 205.199 281.421 198.666 293.688C191.599 307.021 192.533 320.755 201.066 326.355C209.466 331.821 233.866 331.021 245.066 324.888C251.866 321.155 259.333 315.155 258.399 314.221C257.999 313.821 253.333 313.155 247.733 312.755C239.999 312.088 237.066 312.355 234.533 313.821C225.866 319.288 217.333 317.155 217.333 309.555V305.555H240.666H263.999L265.466 301.821C266.266 299.821 267.199 294.621 267.599 290.221C268.666 276.088 261.866 269.955 244.133 268.755C239.066 268.488 232.799 269.021 229.333 269.955ZM242.399 283.688C244.666 285.288 245.333 286.888 245.066 289.955L244.666 294.221L233.066 294.488C226.533 294.488 221.333 294.221 221.333 293.821C221.333 291.821 227.599 285.555 231.333 283.555C236.399 281.021 238.666 281.021 242.399 283.688Z" fill="black"/>
<path d="M88.1329 271.555C74.7996 275.688 61.3329 289.022 57.3329 302.088C53.5996 313.822 58.5329 324.888 69.1996 328.488C76.7996 331.022 91.4662 330.222 100.666 326.888C116.133 320.888 130.666 302.088 130.666 287.688C130.666 281.955 125.733 274.888 120 271.955C114.266 269.155 96.6662 268.888 88.1329 271.555ZM104.533 287.155C107.466 291.288 107.2 294.355 103.333 302.488C99.7329 310.355 93.8662 314.888 87.1996 314.888C82.2662 314.888 79.9996 312.755 79.9996 308.088C79.9996 299.555 85.4662 289.822 92.2662 286.488C98.2662 283.422 102.133 283.688 104.533 287.155Z" fill="black"/>
<path d="M84.399 299.688C86.1324 301.422 98.6657 306.755 98.6657 305.688C98.6657 305.022 95.7324 303.288 92.1324 301.688C85.4657 298.888 82.799 298.222 84.399 299.688Z" fill="black"/>
<path d="M315.333 271.021C313.867 271.821 311.067 274.088 309.067 275.955C305.067 279.688 304.667 279.421 306.667 274.355L308 270.888H296.933H285.867L276.133 298.488C270.667 313.821 266 327.021 265.6 327.955C265.2 329.288 267.6 329.555 276.8 329.288L288.533 328.888L294.133 313.955C302 292.755 307.333 286.355 316.533 287.155C320.4 287.555 321.6 286.755 327.067 280.221C330.667 275.955 332.667 272.355 332 271.688C330.133 269.821 318.267 269.288 315.333 271.021Z" fill="black"/>
<path d="M42.0003 294.355C48.4003 295.421 57.3336 295.555 57.3336 294.621C57.3336 293.955 53.3336 293.688 48.4003 293.688C43.3336 293.821 40.5336 294.088 42.0003 294.355Z" fill="black"/>
<path d="M213.333 338.888C213.333 339.555 212.533 340.221 211.467 340.221C208.267 340.221 206.4 343.688 208.533 345.421C210 346.621 210.8 346.488 212.533 344.888C214.533 342.888 215.6 337.555 214 337.555C213.6 337.555 213.333 338.088 213.333 338.888ZM212 342.888C212 343.555 211.333 344.221 210.533 344.221C209.867 344.221 209.6 343.555 210 342.888C210.4 342.088 211.067 341.555 211.467 341.555C211.733 341.555 212 342.088 212 342.888Z" fill="black"/>
<path d="M220.799 339.155C218.932 344.621 218.932 345.288 221.332 345.955C223.999 346.621 226.665 344.621 226.665 341.955C226.665 341.021 225.865 340.221 224.799 340.221C223.732 340.221 222.665 339.421 222.265 338.488C221.865 337.421 221.332 337.688 220.799 339.155ZM223.999 342.888C223.999 343.555 223.332 344.221 222.532 344.221C221.865 344.221 221.599 343.555 221.999 342.888C222.399 342.088 223.065 341.555 223.465 341.555C223.732 341.555 223.999 342.088 223.999 342.888Z" fill="black"/>
<path d="M240.132 340.621C238.399 345.288 238.266 345.555 239.999 345.555C240.799 345.555 241.332 344.488 241.332 343.155C241.466 341.155 241.599 341.155 243.332 343.421C245.599 346.488 246.132 346.221 247.332 340.888C248.132 337.421 247.999 337.155 246.399 339.155C244.666 341.155 244.399 341.155 243.066 339.155C241.732 337.155 241.466 337.288 240.132 340.621Z" fill="black"/>
<path d="M169.732 339.822C167.599 340.622 167.465 345.022 169.465 346.355C170.265 346.755 171.865 346.222 173.065 345.022C174.932 343.155 174.932 342.622 173.332 341.022C172.265 340.088 170.532 339.422 169.732 339.822ZM171.999 342.888C171.999 343.555 171.465 344.222 170.665 344.222C169.999 344.222 169.332 343.555 169.332 342.888C169.332 342.088 169.999 341.555 170.665 341.555C171.465 341.555 171.999 342.088 171.999 342.888Z" fill="black"/>
<path d="M257.332 340.088C257.332 340.755 256.932 342.221 256.532 343.288C256.132 344.355 256.799 345.555 257.999 346.088C259.732 346.755 259.999 346.221 259.332 344.221C258.799 342.755 259.066 341.555 259.732 341.555C260.399 341.555 261.332 342.755 261.732 344.088C262.532 347.421 267.466 346.355 268.399 342.755C269.199 339.555 268.132 339.555 265.866 342.488C264.132 344.755 264.132 344.755 263.999 342.488C263.999 341.155 263.466 340.355 262.799 340.888C262.132 341.288 261.199 341.021 260.666 340.221C259.599 338.488 257.332 338.488 257.332 340.088Z" fill="black"/>
<path d="M159.6 343.821C158.8 348.221 159.6 349.688 161.334 346.888C162.134 345.821 162.667 345.421 162.667 346.088C162.667 347.955 166.667 344.088 166.667 342.088C166.667 341.021 165.334 340.221 163.467 340.221C161.067 340.221 160.134 341.155 159.6 343.821ZM164 342.888C164 343.555 163.334 344.221 162.534 344.221C161.867 344.221 161.6 343.555 162 342.888C162.4 342.088 163.067 341.555 163.467 341.555C163.734 341.555 164 342.088 164 342.888Z" fill="black"/>
<path d="M176.134 342.488C176 345.688 177.867 346.621 179.467 344.088C180 343.021 180.667 343.155 181.467 344.355C182.534 345.955 182.934 345.821 184 344.221C184.667 343.155 185.334 341.555 185.334 340.888C185.334 340.088 184.8 340.355 184.134 341.421C183.334 342.621 182.8 342.755 182 341.688C181.334 340.488 180.667 340.488 179.334 341.555C178 342.621 177.467 342.488 176.934 341.288C176.534 340.355 176.134 340.888 176.134 342.488Z" fill="black"/>
<path d="M187.199 342.221C186.799 343.288 186.799 344.755 187.333 345.555C188.399 347.288 191.999 347.288 191.999 345.421C191.999 344.755 191.466 344.488 190.666 344.888C189.999 345.288 189.333 344.755 189.333 343.688C189.333 342.355 190.133 341.955 191.333 342.355C192.399 342.888 193.333 342.488 193.333 341.688C193.333 339.555 187.999 339.955 187.199 342.221Z" fill="black"/>
<path d="M194.666 343.288C194.799 345.955 194.933 345.955 196.133 343.821C197.866 340.755 199.466 340.888 200.399 344.221C201.066 346.888 205.333 348.088 205.333 345.421C205.333 344.755 204.799 344.488 203.999 344.888C203.333 345.288 202.666 344.755 202.666 343.688C202.666 342.355 203.466 341.955 204.666 342.355C205.733 342.888 206.666 342.621 206.666 341.821C206.666 341.021 203.999 340.488 200.666 340.488C195.333 340.488 194.666 340.755 194.666 343.288Z" fill="black"/>
<path d="M228.267 344.355C228.4 347.821 228.667 348.088 230.267 346.488C231.334 345.555 231.734 343.688 231.2 342.488C229.867 338.888 228.134 339.955 228.267 344.355Z" fill="black"/>
<path d="M232 341.688C232 342.355 232.667 342.621 233.333 342.221C234.133 341.821 234.667 341.155 234.667 340.755C234.667 340.488 234.133 340.221 233.333 340.221C232.667 340.221 232 340.888 232 341.688Z" fill="black"/>
<path d="M250.4 341.155C251.2 341.421 252 342.621 252 343.688C252 344.755 252.666 345.555 253.333 345.555C254.133 345.555 254.666 344.355 254.666 342.888C254.666 341.021 253.866 340.221 251.733 340.355C250 340.355 249.466 340.755 250.4 341.155Z" fill="black"/>
<path d="M270.266 342.888C269.866 344.355 269.999 345.555 270.532 345.555C270.932 345.555 272.132 344.355 273.066 342.888C274.399 340.755 274.399 340.221 272.799 340.221C271.866 340.221 270.666 341.421 270.266 342.888Z" fill="black"/>
<path d="M275.6 342.088C274.533 344.888 278.267 347.821 280.267 345.821C281.467 344.621 281.333 344.221 279.467 344.221C278.267 344.221 277.467 343.688 278 342.888C278.4 342.221 279.733 342.088 280.933 342.488C282.4 343.021 282.8 342.888 282.133 341.821C280.8 339.555 276.4 339.821 275.6 342.088Z" fill="black"/>
<path d="M248.666 344.088C248.266 344.755 248.533 345.688 249.333 346.222C250 346.622 250.666 346.088 250.666 345.022C250.666 342.622 249.866 342.222 248.666 344.088Z" fill="black"/>
</g>
<defs>
<clipPath id="clip0_911_2">
<rect width="347" height="348" fill="white"/>
</clipPath>
</defs>
</svg>
